<svg id="Group_844" data-name="Group 844" xmlns="http://www.w3.org/2000/svg" width="22.199" height="22.199" viewBox="0 0 22.199 22.199">
  <path id="Path_21478" data-name="Path 21478" d="M1167.1,0a11.1,11.1,0,1,0,11.1,11.1A11.1,11.1,0,0,0,1167.1,0Zm0,20.465a9.365,9.365,0,1,1,9.365-9.365A9.365,9.365,0,0,1,1167.1,20.465Z" transform="translate(-1156)" fill="#fff"/>
  <path id="Path_21479" data-name="Path 21479" d="M1356.664,131.754h-1.929v-1.409c0-.434.447-.533.655-.533h1.249v-1.9l-1.431-.009a2.188,2.188,0,0,0-2.393,2.328v1.522H1351.4v1.964h1.413V139h1.921v-5.29h1.635Z" transform="translate(-1342.928 -122.355)" fill="#fff"/>
</svg>
