<svg xmlns="http://www.w3.org/2000/svg" width="39.454" height="39.454" viewBox="0 0 39.454 39.454">
  <g id="Group_450" data-name="Group 450" transform="translate(0)">
    <path id="Path_21478" data-name="Path 21478" d="M1175.727,0a19.727,19.727,0,1,0,19.727,19.727A19.725,19.725,0,0,0,1175.727,0Zm0,36.371a16.645,16.645,0,1,1,16.645-16.645A16.644,16.644,0,0,1,1175.727,36.371Z" transform="translate(-1156)" fill="#1f1f1f"/>
    <path id="Path_21479" data-name="Path 21479" d="M1360.755,134.75h-3.429v-2.5c0-.771.793-.948,1.164-.948h2.219v-3.383l-2.543-.015a3.889,3.889,0,0,0-4.254,4.138v2.7H1351.4v3.491h2.512v9.4h3.414v-9.4h2.905Z" transform="translate(-1336.343 -118.044)" fill="#1f1f1f"/>
  </g>
</svg>
