<svg xmlns="http://www.w3.org/2000/svg" width="22.199" height="22.199" viewBox="0 0 22.199 22.199">
  <g id="Group_698" data-name="Group 698" transform="translate(-105.616 -0.822)">
    <g id="Group_777" data-name="Group 777" transform="translate(105.616 0.822)">
      <g id="Group_683" data-name="Group 683">
        <g id="Group_450" data-name="Group 450" transform="translate(0 0)">
          <path id="Path_21478" data-name="Path 21478" d="M1167.1,0a11.1,11.1,0,1,0,11.1,11.1A11.1,11.1,0,0,0,1167.1,0Zm0,20.465a9.365,9.365,0,1,1,9.365-9.365A9.365,9.365,0,0,1,1167.1,20.465Z" transform="translate(-1156)" fill="#fff"/>
        </g>
      </g>
    </g>
    <g id="instagram" transform="translate(110.415 5.711)">
      <path id="Path_21533" data-name="Path 21533" d="M9.016,0H3.825A3.83,3.83,0,0,0,0,3.825v5.19a3.83,3.83,0,0,0,3.825,3.825h5.19a3.83,3.83,0,0,0,3.825-3.825V3.825A3.83,3.83,0,0,0,9.016,0Zm2.534,9.016a2.534,2.534,0,0,1-2.534,2.534H3.825A2.534,2.534,0,0,1,1.292,9.016V3.825A2.534,2.534,0,0,1,3.825,1.292h5.19a2.534,2.534,0,0,1,2.534,2.534v5.19Z" fill="#fff"/>
      <path id="Path_21534" data-name="Path 21534" d="M136.321,133a3.321,3.321,0,1,0,3.321,3.321A3.325,3.325,0,0,0,136.321,133Zm0,5.351a2.029,2.029,0,1,1,2.029-2.029A2.029,2.029,0,0,1,136.321,138.351Z" transform="translate(-129.901 -129.901)" fill="#fff"/>
      <circle id="Ellipse_61" data-name="Ellipse 61" cx="0.796" cy="0.796" r="0.796" transform="translate(8.952 2.329)" fill="#fff"/>
    </g>
  </g>
</svg>
