<svg id="Group_778" data-name="Group 778" xmlns="http://www.w3.org/2000/svg" width="39.454" height="39.454" viewBox="0 0 39.454 39.454">
  <g id="Group_777" data-name="Group 777" transform="translate(0 0)">
    <g id="Group_683" data-name="Group 683" transform="translate(0 0)">
      <g id="Group_450" data-name="Group 450">
        <path id="Path_21478" data-name="Path 21478" d="M1175.727,0a19.727,19.727,0,1,0,19.727,19.727A19.725,19.725,0,0,0,1175.727,0Zm0,36.371a16.645,16.645,0,1,1,16.645-16.645A16.644,16.644,0,0,1,1175.727,36.371Z" transform="translate(-1156)" fill="#1f1f1f"/>
      </g>
    </g>
  </g>
  <g id="instagram" transform="translate(8.529 8.689)">
    <path id="Path_21533" data-name="Path 21533" d="M16.023,0H6.8A6.807,6.807,0,0,0,0,6.8v9.224a6.807,6.807,0,0,0,6.8,6.8h9.224a6.807,6.807,0,0,0,6.8-6.8V6.8A6.807,6.807,0,0,0,16.023,0Zm4.5,16.023a4.5,4.5,0,0,1-4.5,4.5H6.8a4.5,4.5,0,0,1-4.5-4.5V6.8A4.5,4.5,0,0,1,6.8,2.3h9.224a4.5,4.5,0,0,1,4.5,4.5v9.224Z" fill="#1f1f1f"/>
    <path id="Path_21534" data-name="Path 21534" d="M138.9,133a5.9,5.9,0,1,0,5.9,5.9A5.909,5.909,0,0,0,138.9,133Zm0,9.509a3.607,3.607,0,1,1,3.607-3.607A3.607,3.607,0,0,1,138.9,142.509Z" transform="translate(-127.492 -127.492)" fill="#1f1f1f"/>
    <circle id="Ellipse_61" data-name="Ellipse 61" cx="1.414" cy="1.414" r="1.414" transform="translate(15.911 4.138)" fill="#1f1f1f"/>
  </g>
</svg>
