<svg id="Group_447" data-name="Group 447" xmlns="http://www.w3.org/2000/svg" width="39.454" height="39.454" viewBox="0 0 39.454 39.454">
  <path id="Path_21474" data-name="Path 21474" d="M19.727,0A19.727,19.727,0,1,0,39.454,19.727,19.725,19.725,0,0,0,19.727,0Zm0,36.371A16.645,16.645,0,1,1,36.371,19.727,16.644,16.644,0,0,1,19.727,36.371Z" fill="#1f1f1f"/>
  <g id="Group_446" data-name="Group 446" transform="translate(9.871 9.856)">
    <g id="Group_445" data-name="Group 445">
      <path id="Path_21475" data-name="Path 21475" d="M128.1,147.627h3.7v-14.8h-3.7Zm14.8-14.8a6.778,6.778,0,0,0-4.932,2.466v-2.466h-3.7v14.8h3.7V139a3.143,3.143,0,0,1,3.7-2.466c1.564.1,2.412,2.173,2.466,2.466v8.63l3.683.015V137.4A4.617,4.617,0,0,0,142.9,132.832ZM129.949,127.9a1.849,1.849,0,1,0,1.849,1.849A1.85,1.85,0,0,0,129.949,127.9Z" transform="translate(-128.1 -127.9)" fill="#1f1f1f"/>
    </g>
  </g>
</svg>
