<svg id="Group_843" data-name="Group 843" xmlns="http://www.w3.org/2000/svg" width="22.199" height="22.199" viewBox="0 0 22.199 22.199">
  <path id="Path_21474" data-name="Path 21474" d="M11.1,0A11.1,11.1,0,1,0,22.2,11.1,11.1,11.1,0,0,0,11.1,0Zm0,20.465A9.365,9.365,0,1,1,20.465,11.1,9.365,9.365,0,0,1,11.1,20.465Z" fill="#fff"/>
  <g id="Group_446" data-name="Group 446" transform="translate(5.554 5.545)">
    <g id="Group_445" data-name="Group 445">
      <path id="Path_21475" data-name="Path 21475" d="M128.1,139h2.081v-8.325H128.1Zm8.325-8.325a3.813,3.813,0,0,0-2.775,1.387v-1.387h-2.081V139h2.081v-4.856a1.768,1.768,0,0,1,2.081-1.387c.88.056,1.357,1.223,1.387,1.387V139l2.072.009v-5.762A2.6,2.6,0,0,0,136.425,130.675Zm-7.284-2.775a1.041,1.041,0,1,0,1.041,1.041A1.041,1.041,0,0,0,129.141,127.9Z" transform="translate(-128.1 -127.9)" fill="#fff"/>
    </g>
  </g>
</svg>
