<svg id="ROUGH_DRAW_COL" data-name="ROUGH DRAW COL" xmlns="http://www.w3.org/2000/svg" width="555.4" height="152.4" viewBox="0 0 555.4 152.4">
  <path id="Path_21541" data-name="Path 21541" d="M44.5,74.4c0-27.2,30.6-49.3,68.2-49.3q3.6,0,7.2.3V0C52.9,2.8,0,35.8,0,76.2s52.9,73.5,119.9,76.2v-29q-3.6.3-7.2.3C75,123.7,44.5,101.7,44.5,74.4Z" fill="#fff"/>
  <ellipse id="Ellipse_70" data-name="Ellipse 70" cx="68.2" cy="49.3" rx="68.2" ry="49.3" transform="translate(44.5 25.1)" fill="#fff"/>
  <path id="Path_21542" data-name="Path 21542" d="M133.1,43,113.8,68.9,91,43,56.7,95.2c10.8,14.2,31.8,23.8,56,23.8,23.6,0,44.3-9.2,55.2-22.8Z" fill="#1e1e21"/>
  <g id="Group_844" data-name="Group 844">
    <path id="Path_21543" data-name="Path 21543" d="M112.7,123.7c-37.7,0-68.2-22.1-68.2-49.3s30.6-49.3,68.2-49.3h2.4V5.6C53.4,9.6,5.4,39.7,5.4,76.3s48,66.8,109.7,70.7V123.6A19.269,19.269,0,0,1,112.7,123.7Z" fill="#1e1e21"/>
  </g>
  <g id="Group_845" data-name="Group 845">
    <path id="Path_21544" data-name="Path 21544" d="M238.1,75.8c-5.4,3.8-10.6,5.7-15.5,5.7a22.707,22.707,0,0,1-16.5-6.6,22.224,22.224,0,0,1,0-32,22.87,22.87,0,0,1,16.5-6.6A23.181,23.181,0,0,1,238,41.9l.2.1v6.2h-6.4V45.4a17.433,17.433,0,0,0-9.2-2.5,14.855,14.855,0,0,0-11.3,4.7A16.05,16.05,0,0,0,207.1,59a16.218,16.218,0,0,0,4.2,11.4,14.855,14.855,0,0,0,11.3,4.7,17.322,17.322,0,0,0,9-2.4l.1-.1V69.8h6.4Z" fill="#fff"/>
    <path id="Path_21545" data-name="Path 21545" d="M248.4,54.2a12.726,12.726,0,0,1,4-4,9.317,9.317,0,0,1,4.9-1.5,7.022,7.022,0,0,1,4.7,1.9,12.382,12.382,0,0,1,3.4,6.1q-3.15,1.05-6.6,2.4c-.7-1.9-1.6-3.1-2.8-3.5a3.466,3.466,0,0,0-3.3.6,9.717,9.717,0,0,0-2.8,2.9,7.807,7.807,0,0,0-1.4,3.5c0,.3-.1.5-.1.7V75.6l2.4-.1v5.8H239.1V75.5h2.4v-20h-3.7v-6h10.6v4.7Z" fill="#fff"/>
    <path id="Path_21546" data-name="Path 21546" d="M298.8,55.6V75.3h2.4v6.1h-9.3V78.8a16.709,16.709,0,0,1-10.5,3.6,17,17,0,0,1-12.2-5,16.01,16.01,0,0,1-5-12,16.387,16.387,0,0,1,5-12A17.26,17.26,0,0,1,291.9,52V49.4h9.3v6.1h-2.4ZM281.4,75.4a10.6,10.6,0,0,0,7.4-2.9,9.9,9.9,0,0,0,0-14.2,10.023,10.023,0,0,0-7.4-2.9,10.2,10.2,0,0,0-7.3,2.9,9.7,9.7,0,0,0-3.1,7.1,9.333,9.333,0,0,0,3.1,7.1A9.8,9.8,0,0,0,281.4,75.4Z" fill="#fff"/>
    <path id="Path_21547" data-name="Path 21547" d="M337.6,75.5v5.8H325.8V75.5h2.4V60.7c-.4-2.7-1.4-4.4-3.1-5.2-1.4-.7-3.1-.6-5.1.1a13.918,13.918,0,0,0-5,3.1,9.67,9.67,0,0,0-2.8,3.8v13h2.4v5.8H302.8V75.5h2.4V62.7a3.751,3.751,0,0,1,.1-1V55.4h-3.8V49.3h10.7V53c5-3.6,9.7-5.2,14-4.6a8.477,8.477,0,0,1,5.8,3.2c1.7,2,2.7,5,3.1,8.8q.15,1.65,0,6.6v8.5h2.5Z" fill="#fff"/>
    <path id="Path_21548" data-name="Path 21548" d="M373.3,75.5v5.8H361.5V75.5h2.4V60.7c-.4-2.7-1.4-4.4-3.1-5.2-1.4-.7-3.1-.6-5.1.1a13.918,13.918,0,0,0-5,3.1,9.67,9.67,0,0,0-2.8,3.8v13h2.4v5.8H338.5V75.5h2.4V62.7a3.751,3.751,0,0,1,.1-1V55.4h-3.8V49.3h10.7V53c5-3.6,9.7-5.2,14-4.6a8.477,8.477,0,0,1,5.8,3.2c1.7,2,2.7,5,3.1,8.8q.15,1.65,0,6.6v8.5h2.5Z" fill="#fff"/>
    <path id="Path_21549" data-name="Path 21549" d="M403.8,49.6v5.8h-3.6L386.4,93h-6.7l4.1-12.1-8.6-25.5h-3.6V49.6h8.8l7.3,22.8L395,49.6h8.8Z" fill="#fff"/>
    <path id="Path_21550" data-name="Path 21550" d="M461,75.8v5.8H449.1V75.8h2.4V61c-.4-2.6-1.4-4.4-3-5.2a6.171,6.171,0,0,0-5,0,15.119,15.119,0,0,0-5,2.9,11.57,11.57,0,0,0-3,3.7c0,1.4,0,3-.1,4.9v8.6h2.4v5.8H425.9V75.9h2.4V61c-.4-2.7-1.4-4.4-3.1-5.2a6.284,6.284,0,0,0-5.2.1,13.918,13.918,0,0,0-5,3.1,10.422,10.422,0,0,0-2.8,3.8V75.9h2.4v5.8H402.7V75.9h2.4v-13a3.751,3.751,0,0,1,.1-1V55.5h-3.8V49.4h10.7v3.7c4.1-3,8-4.5,11.9-4.7,4.6-.2,7.8,1.7,9.6,5.9a26.975,26.975,0,0,1,7-4.3,15.825,15.825,0,0,1,7.6-1.5,8.755,8.755,0,0,1,6.4,2.9c1.9,2,3,5.1,3.4,9.2.1,1.1.1,3.3,0,6.7v8.6h3Z" fill="#fff"/>
    <path id="Path_21551" data-name="Path 21551" d="M464.9,77.6a16.912,16.912,0,0,1,0-24.4,17.44,17.44,0,0,1,12.6-5.1A17.051,17.051,0,0,1,490,53.2a16.912,16.912,0,0,1,0,24.4,17.991,17.991,0,0,1-25.1,0Zm5-19.4a9.7,9.7,0,0,0,0,14.4,11.127,11.127,0,0,0,15.2,0,9.7,9.7,0,0,0,0-14.4,10.568,10.568,0,0,0-7.6-3A10.405,10.405,0,0,0,469.9,58.2Z" fill="#fff"/>
    <path id="Path_21552" data-name="Path 21552" d="M504.7,54.2a12.726,12.726,0,0,1,4-4,9.317,9.317,0,0,1,4.9-1.5,7.022,7.022,0,0,1,4.7,1.9,12.382,12.382,0,0,1,3.4,6.1q-3.15,1.05-6.6,2.4c-.7-1.9-1.6-3.1-2.8-3.5a3.466,3.466,0,0,0-3.3.6,9.717,9.717,0,0,0-2.8,2.9,7.808,7.808,0,0,0-1.4,3.5c0,.3-.1.5-.1.7V75.6l2.4-.1v5.8H495.4V75.5h2.4v-20h-3.7v-6h10.6v4.7Z" fill="#fff"/>
    <path id="Path_21553" data-name="Path 21553" d="M537.6,75.8a10.668,10.668,0,0,0,6.7-2.3h9.1a17.671,17.671,0,0,1-6.5,6.8,18.228,18.228,0,0,1-9.4,2.6,17.44,17.44,0,0,1-12.6-5.1,17.147,17.147,0,0,1,0-24.6,17.44,17.44,0,0,1,12.6-5.1,18.181,18.181,0,0,1,9.9,2.9,17.465,17.465,0,0,1,6.5,7.5,19.4,19.4,0,0,1,1.5,7l-27.8,4a9.476,9.476,0,0,0,3.9,4.5A11.142,11.142,0,0,0,537.6,75.8Zm0-20.5a11.042,11.042,0,0,0-6.4,2,9.631,9.631,0,0,0-3.8,5.1l19-2.8a10.839,10.839,0,0,0-3.8-3.2A11.813,11.813,0,0,0,537.6,55.3Z" fill="#fff"/>
  </g>
  <g id="Group_846" data-name="Group 846">
    <path id="Path_21554" data-name="Path 21554" d="M273.4,113.8c-3.3,2.3-6.4,3.4-9.3,3.4a13.423,13.423,0,0,1-9.9-4,13.289,13.289,0,0,1,0-19.2,13.822,13.822,0,0,1,9.9-4,13.449,13.449,0,0,1,9.2,3.4l.1.1v3.7h-3.8V95.5a10.575,10.575,0,0,0-5.5-1.5,8.831,8.831,0,0,0-6.8,2.8,10.5,10.5,0,0,0,0,13.6,8.687,8.687,0,0,0,6.8,2.8,10.854,10.854,0,0,0,5.4-1.4h.1v-1.7h3.8v3.7Z" fill="#fff"/>
    <path id="Path_21555" data-name="Path 21555" d="M278.7,114.9a9.757,9.757,0,0,1-3.1-7.3,9.605,9.605,0,0,1,3.1-7.3,10.875,10.875,0,0,1,15,0,9.757,9.757,0,0,1,3.1,7.3,9.605,9.605,0,0,1-3.1,7.3,10.875,10.875,0,0,1-15,0Zm3-11.7a5.816,5.816,0,0,0,0,8.6,6.437,6.437,0,0,0,4.5,1.8,6.105,6.105,0,0,0,4.5-1.8,5.816,5.816,0,0,0,0-8.6,6.437,6.437,0,0,0-4.5-1.8A6.105,6.105,0,0,0,281.7,103.2Z" fill="#fff"/>
    <path id="Path_21556" data-name="Path 21556" d="M320.6,113.6v3.5h-7.1v-3.5H315v-8.9a3.865,3.865,0,0,0-1.8-3.1,3.747,3.747,0,0,0-3.1.1,8.035,8.035,0,0,0-3,1.9,5.422,5.422,0,0,0-1.7,2.3v7.8h1.4v3.5h-7.1v-3.5h1.5V106a1.268,1.268,0,0,1,.1-.6v-3.8H299V98h6.4v2.2c3-2.2,5.8-3.1,8.4-2.8a5.328,5.328,0,0,1,3.5,1.9,9.507,9.507,0,0,1,1.8,5.3,25.123,25.123,0,0,1,0,4v5.1h1.5Z" fill="#fff"/>
    <path id="Path_21557" data-name="Path 21557" d="M336.1,111.7a5.6,5.6,0,0,1-1.3,4.2c-1.2,1.3-2.9,1.9-5.3,1.9a25.075,25.075,0,0,1-6.1-1.4l-.2-.1v-4.1h3.4v1.4a7.058,7.058,0,0,0,2.8.6,2.776,2.776,0,0,0,2.2-.7,1.688,1.688,0,0,0,.4-1.4,2.628,2.628,0,0,0-.7-1.5,6.6,6.6,0,0,0-2.4-1.3c-3.6-1.3-5.5-3.2-5.8-5.9a5.37,5.37,0,0,1,1.2-3.9,6.261,6.261,0,0,1,4.9-1.9,9.887,9.887,0,0,1,3,.4,2.035,2.035,0,0,0,.5.1c1.5.4,2.4.7,2.7.8l.2.1v4.1h-3.4v-1.4a5.954,5.954,0,0,0-2.7-.6,2.226,2.226,0,0,0-1.9.7,1.594,1.594,0,0,0-.4,1.2,1.91,1.91,0,0,0,.7,1.4,7.676,7.676,0,0,0,2.6,1.3,10.648,10.648,0,0,1,4.1,2.5A5.356,5.356,0,0,1,336.1,111.7Z" fill="#fff"/>
    <path id="Path_21558" data-name="Path 21558" d="M345,111.5c0,.7.2,1.2.7,1.4a7.765,7.765,0,0,0,1.9.3v3.9a7.3,7.3,0,0,1-4.8-1.6,5.362,5.362,0,0,1-2-4.3V100.7h-2.2V97h2.2V90.9H345V97h2.6v3.7H345Z" fill="#fff"/>
    <path id="Path_21559" data-name="Path 21559" d="M356,100.8a9.122,9.122,0,0,1,2.4-2.4,5.788,5.788,0,0,1,3-.9,4.105,4.105,0,0,1,2.8,1.1,7.687,7.687,0,0,1,2.1,3.7c-1.3.4-2.6.9-4,1.4a2.916,2.916,0,0,0-1.7-2.1,2.191,2.191,0,0,0-2,.4,5.922,5.922,0,0,0-1.7,1.8,4.789,4.789,0,0,0-.9,2.1c0,.2,0,.3-.1.4v7.4l1.5-.1v3.5h-7v-3.5h1.4v-12h-2.2V98h6.3v2.8Z" fill="#fff"/>
    <path id="Path_21560" data-name="Path 21560" d="M368,101.6V98.1h7.1v3.5h-1.5v8.9a3.706,3.706,0,0,0,1.9,3.1,3.747,3.747,0,0,0,3.1-.1,8.035,8.035,0,0,0,3-1.9,4.39,4.39,0,0,0,1.6-2.3v-7.8h-1.4V98h7.1v3.5h-1.5v7.7a1.268,1.268,0,0,1-.1.6v3.8h2.3v3.6h-6.4V115c-3,2.2-5.8,3.1-8.4,2.8a5.328,5.328,0,0,1-3.5-1.9,10.339,10.339,0,0,1-1.9-5.3,25.123,25.123,0,0,1,0-4v-5.1H368Z" fill="#fff"/>
    <path id="Path_21561" data-name="Path 21561" d="M411.5,97.9v6.2h-3.6l-.3-.3c-.2-.2-.4-.3-.5-.5a9.392,9.392,0,0,0-1.8-1.2,6.71,6.71,0,0,0-2.8-.6,6.374,6.374,0,0,0-4.4,1.7,5.8,5.8,0,0,0,0,8.4,5.951,5.951,0,0,0,4.4,1.7,6.284,6.284,0,0,0,3.7-1.2h5.4a10.363,10.363,0,0,1-3.7,3.8,9.8,9.8,0,0,1-5.3,1.4,10.365,10.365,0,0,1-7.3-2.9,9.9,9.9,0,0,1,0-14.2,9.8,9.8,0,0,1,7.3-2.9,10.575,10.575,0,0,1,5.5,1.5V97.7h3.4Z" fill="#fff"/>
    <path id="Path_21562" data-name="Path 21562" d="M419.9,111.5c0,.7.2,1.2.7,1.4a7.765,7.765,0,0,0,1.9.3v3.9a7.3,7.3,0,0,1-4.8-1.6,5.362,5.362,0,0,1-2-4.3V100.7h-2.2V97h2.2V90.9h4.2V97h2.6v3.7h-2.6v10.8Z" fill="#fff"/>
    <path id="Path_21563" data-name="Path 21563" d="M431,98.1v15.4h2.3v3.6h-8.7v-3.6h2.3V101.8h-2.3V98.2H431Zm-2.3-1.5a2.136,2.136,0,0,1-1.7-.8,2.41,2.41,0,0,1-.7-1.8,2.805,2.805,0,0,1,.7-1.9,2.289,2.289,0,0,1,1.7-.8,2.136,2.136,0,0,1,1.7.8,2.489,2.489,0,0,1,.7,1.9,2.41,2.41,0,0,1-.7,1.8A2.465,2.465,0,0,1,428.7,96.6Z" fill="#fff"/>
    <path id="Path_21564" data-name="Path 21564" d="M438.1,114.9a9.757,9.757,0,0,1-3.1-7.3,9.605,9.605,0,0,1,3.1-7.3,10.875,10.875,0,0,1,15,0,9.757,9.757,0,0,1,3.1,7.3,9.605,9.605,0,0,1-3.1,7.3,10.875,10.875,0,0,1-15,0Zm3-11.7a5.816,5.816,0,0,0,0,8.6,6.267,6.267,0,0,0,4.5,1.8,6.105,6.105,0,0,0,4.5-1.8,5.816,5.816,0,0,0,0-8.6,6.437,6.437,0,0,0-4.5-1.8A6.267,6.267,0,0,0,441.1,103.2Z" fill="#fff"/>
    <path id="Path_21565" data-name="Path 21565" d="M480,113.6v3.5h-7.1v-3.5h1.5v-8.9a3.865,3.865,0,0,0-1.8-3.1,3.747,3.747,0,0,0-3.1.1,8.035,8.035,0,0,0-3,1.9,5.422,5.422,0,0,0-1.7,2.3v7.8h1.4v3.5h-7.1v-3.5h1.5V106a1.268,1.268,0,0,1,.1-.6v-3.8h-2.3V98h6.4v2.2c3-2.2,5.8-3.1,8.4-2.8a5.328,5.328,0,0,1,3.5,1.9,9.507,9.507,0,0,1,1.8,5.3,25.123,25.123,0,0,1,0,4v5.1H480Z" fill="#fff"/>
  </g>
  <g id="Group_847" data-name="Group 847">
    <path id="Path_21566" data-name="Path 21566" d="M491.7,102.9v2h-.8v10.2H495v-1.6h2v3.6h-9.3v-2h.8V104.9h-.8v-2Z" fill="#ea5913"/>
    <path id="Path_21567" data-name="Path 21567" d="M500.8,114.2a.812.812,0,0,0,.4.8c.1,0,.4.1,1,.2v2.1a3.739,3.739,0,0,1-2.6-.9,2.845,2.845,0,0,1-1.1-2.3v-5.6h-1.2v-2h1.2v-3.3h2.2v3.3h1.4v2h-1.4v5.7Z" fill="#ea5913"/>
    <path id="Path_21568" data-name="Path 21568" d="M512.3,107.6v-4.3h3.1v2h-.8v10h.8v2h-3.1v-.9a5.5,5.5,0,0,1-3.5,1.2,5.636,5.636,0,0,1-5.7-5.5,5.22,5.22,0,0,1,1.7-3.9,5.507,5.507,0,0,1,4-1.6A4.535,4.535,0,0,1,512.3,107.6Zm-1.1,6.7a3.145,3.145,0,0,0,0-4.6,3.69,3.69,0,0,0-2.4-1,2.965,2.965,0,0,0-2.4,1,3.145,3.145,0,0,0,0,4.6,3.69,3.69,0,0,0,2.4,1A3.25,3.25,0,0,0,511.2,114.3Z" fill="#ea5913"/>
    <path id="Path_21569" data-name="Path 21569" d="M518.3,117a1.366,1.366,0,0,1-1.1.4,1.5,1.5,0,0,1-1.1-.4,1.366,1.366,0,0,1-.4-1.1,1.5,1.5,0,0,1,.4-1.1,1.366,1.366,0,0,1,1.1-.4,1.5,1.5,0,0,1,1.1.4,1.712,1.712,0,0,1,0,2.2Z" fill="#ea5913"/>
  </g>
</svg>
