<svg id="ROUGH_DRAW_COL" data-name="ROUGH DRAW COL" xmlns="http://www.w3.org/2000/svg" width="340.327" height="93.314" viewBox="0 0 340.327 93.314">
  <path id="Path_21541" data-name="Path 21541" d="M27.247,45.555c0-16.654,18.736-30.186,41.758-30.186q2.2,0,4.409.184V0C32.39,1.714,0,21.92,0,46.657s32.39,45,73.414,46.657V75.557q-2.2.184-4.409.184C45.922,75.741,27.247,62.27,27.247,45.555Z" fill="#fff"/>
  <ellipse id="Ellipse_70" data-name="Ellipse 70" cx="41.758" cy="30.186" rx="41.758" ry="30.186" transform="translate(27.247 15.369)" fill="#fff"/>
  <path id="Path_21542" data-name="Path 21542" d="M103.479,43,91.662,58.858,77.7,43l-21,31.962c6.613,8.695,19.471,14.573,34.288,14.573,14.45,0,27.125-5.633,33.8-13.96Z" transform="translate(-21.983 -16.671)" fill="#1e1e21"/>
  <g id="Group_844" data-name="Group 844" transform="translate(3.306 3.429)">
    <path id="Path_21543" data-name="Path 21543" d="M71.1,77.912c-23.083,0-41.758-13.532-41.758-30.186S48.077,17.54,71.1,17.54h1.47V5.6C34.79,8.049,5.4,26.479,5.4,48.889s29.39,40.9,67.169,43.289V77.851A11.8,11.8,0,0,1,71.1,77.912Z" transform="translate(-5.4 -5.6)" fill="#1e1e21"/>
  </g>
  <g id="Group_845" data-name="Group 845" transform="translate(122.03 22.226)">
    <path id="Path_21544" data-name="Path 21544" d="M223.057,60.486c-3.306,2.327-6.49,3.49-9.491,3.49a13.9,13.9,0,0,1-10.1-4.041,13.607,13.607,0,0,1,0-19.593,14,14,0,0,1,10.1-4.041A14.193,14.193,0,0,1,223,39.729l.122.061v3.8H219.2V41.872a10.674,10.674,0,0,0-5.633-1.531,9.1,9.1,0,0,0-6.919,2.878,9.827,9.827,0,0,0-2.572,6.98,9.93,9.93,0,0,0,2.572,6.98,9.1,9.1,0,0,0,6.919,2.878,10.606,10.606,0,0,0,5.511-1.47l.061-.061V56.812h3.919Z" transform="translate(-199.3 -36.3)" fill="#fff" stroke="#1e1e21" stroke-width="0.5"/>
    <path id="Path_21545" data-name="Path 21545" d="M244.29,52.068a7.792,7.792,0,0,1,2.449-2.449,5.705,5.705,0,0,1,3-.918,4.3,4.3,0,0,1,2.878,1.163A7.581,7.581,0,0,1,254.7,53.6q-1.929.643-4.041,1.47a3.184,3.184,0,0,0-1.714-2.143,2.122,2.122,0,0,0-2.021.367,5.95,5.95,0,0,0-1.714,1.776,4.781,4.781,0,0,0-.857,2.143c0,.184-.061.306-.061.429v7.531l1.469-.061v3.551H238.6V65.11h1.47V52.864H237.8V49.19h6.49v2.878Z" transform="translate(-214.227 -41.108)" fill="#fff" stroke="#1e1e21" stroke-width="0.5"/>
    <path id="Path_21546" data-name="Path 21546" d="M285.385,52.809V64.871h1.469v3.735h-5.694V67.014a10.231,10.231,0,0,1-6.429,2.2,10.411,10.411,0,0,1-7.47-3.061,9.8,9.8,0,0,1-3.062-7.348,10.034,10.034,0,0,1,3.062-7.348,10.568,10.568,0,0,1,13.9-.857V49.012h5.694v3.735h-1.469ZM274.731,64.932a6.493,6.493,0,0,0,4.531-1.776,6.063,6.063,0,0,0,0-8.695,6.137,6.137,0,0,0-4.531-1.776,6.242,6.242,0,0,0-4.47,1.776,5.937,5.937,0,0,0-1.9,4.347,5.714,5.714,0,0,0,1.9,4.347A6,6,0,0,0,274.731,64.932Z" transform="translate(-224.462 -40.991)" fill="#fff" stroke="#1e1e21" stroke-width="0.5"/>
    <path id="Path_21547" data-name="Path 21547" d="M323.6,64.945V68.5h-7.225V64.945h1.47V55.883c-.245-1.653-.857-2.694-1.9-3.184a3.956,3.956,0,0,0-3.123.061,8.522,8.522,0,0,0-3.061,1.9,5.921,5.921,0,0,0-1.714,2.327v7.96h1.469V68.5H302.3V64.945h1.47V57.108a2.3,2.3,0,0,1,.061-.612V52.638H301.5V48.9h6.552v2.265c3.061-2.2,5.939-3.184,8.572-2.817a5.19,5.19,0,0,1,3.551,1.959,9.852,9.852,0,0,1,1.9,5.388q.092,1.01,0,4.041v5.2H323.6Z" transform="translate(-238.924 -40.943)" fill="#fff" stroke="#1e1e21" stroke-width="0.5"/>
    <path id="Path_21548" data-name="Path 21548" d="M359.3,64.945V68.5h-7.225V64.945h1.469V55.883c-.245-1.653-.857-2.694-1.9-3.184a3.956,3.956,0,0,0-3.123.061,8.522,8.522,0,0,0-3.061,1.9,5.92,5.92,0,0,0-1.714,2.327v7.96h1.469V68.5H338V64.945h1.469V57.108a2.3,2.3,0,0,1,.061-.612V52.638H337.2V48.9h6.552v2.265c3.061-2.2,5.939-3.184,8.572-2.817a5.19,5.19,0,0,1,3.551,1.959,9.852,9.852,0,0,1,1.9,5.388q.092,1.01,0,4.041v5.2H359.3Z" transform="translate(-252.765 -40.943)" fill="#fff" stroke="#1e1e21" stroke-width="0.5"/>
    <path id="Path_21549" data-name="Path 21549" d="M391.316,49.6v3.551h-2.2l-8.45,23.022h-4.1l2.51-7.409L373.8,53.151h-2.2V49.6h5.388l4.47,13.96,4.47-13.96Z" transform="translate(-266.102 -41.456)" fill="#fff" stroke="#1e1e21" stroke-width="0.5"/>
    <path id="Path_21550" data-name="Path 21550" d="M437.893,65.171v3.551h-7.286V65.171h1.47V56.109a3.968,3.968,0,0,0-1.837-3.184,3.778,3.778,0,0,0-3.061,0,9.258,9.258,0,0,0-3.061,1.776,7.084,7.084,0,0,0-1.837,2.265c0,.857,0,1.837-.061,3v5.266h1.469v3.551H416.4V65.233h1.47V56.109c-.245-1.653-.857-2.694-1.9-3.184a3.848,3.848,0,0,0-3.184.061,8.521,8.521,0,0,0-3.061,1.9,6.381,6.381,0,0,0-1.714,2.327v8.021h1.47v3.551H402.2V65.233h1.47v-7.96a2.3,2.3,0,0,1,.061-.612V52.742H401.4V49.007h6.552v2.265a13.429,13.429,0,0,1,7.286-2.878,5.568,5.568,0,0,1,5.878,3.613,16.517,16.517,0,0,1,4.286-2.633,9.689,9.689,0,0,1,4.653-.918,5.361,5.361,0,0,1,3.919,1.776,9.334,9.334,0,0,1,2.082,5.633c.061.674.061,2.021,0,4.1v5.266h1.837Z" transform="translate(-277.655 -40.986)" fill="#fff" stroke="#1e1e21" stroke-width="0.5"/>
    <path id="Path_21551" data-name="Path 21551" d="M462.884,66.163a10.355,10.355,0,0,1,0-14.94A10.678,10.678,0,0,1,470.6,48.1a10.44,10.44,0,0,1,7.654,3.123,10.355,10.355,0,0,1,0,14.94,11.016,11.016,0,0,1-15.369,0Zm3.062-11.879a5.939,5.939,0,0,0,0,8.817,6.813,6.813,0,0,0,9.307,0,5.939,5.939,0,0,0,0-8.817,6.47,6.47,0,0,0-4.653-1.837A6.371,6.371,0,0,0,465.945,54.284Z" transform="translate(-300.259 -40.875)" fill="#fff" stroke="#1e1e21" stroke-width="0.5"/>
    <path id="Path_21552" data-name="Path 21552" d="M500.59,52.068a7.792,7.792,0,0,1,2.449-2.449,5.705,5.705,0,0,1,3-.918,4.3,4.3,0,0,1,2.878,1.163A7.581,7.581,0,0,1,511,53.6q-1.929.643-4.041,1.47a3.183,3.183,0,0,0-1.714-2.143,2.122,2.122,0,0,0-2.021.367,5.949,5.949,0,0,0-1.714,1.776,4.78,4.78,0,0,0-.857,2.143c0,.184-.061.306-.061.429v7.531l1.469-.061v3.551H494.9V65.11h1.469V52.864H494.1V49.19h6.49Z" transform="translate(-313.596 -41.108)" fill="#fff" stroke="#1e1e21" stroke-width="0.5"/>
    <path id="Path_21553" data-name="Path 21553" d="M530.66,65.061a6.532,6.532,0,0,0,4.1-1.408h5.572a10.819,10.819,0,0,1-3.98,4.164,11.161,11.161,0,0,1-5.756,1.592,10.678,10.678,0,0,1-7.715-3.123,10.5,10.5,0,0,1,0-15.062A10.678,10.678,0,0,1,530.6,48.1a11.132,11.132,0,0,1,6.062,1.776,10.7,10.7,0,0,1,3.98,4.592,11.88,11.88,0,0,1,.918,4.286L524.537,61.2a5.8,5.8,0,0,0,2.388,2.755A6.822,6.822,0,0,0,530.66,65.061Zm0-12.552a6.761,6.761,0,0,0-3.919,1.225,5.9,5.9,0,0,0-2.327,3.123l11.634-1.714a6.637,6.637,0,0,0-2.327-1.959A7.234,7.234,0,0,0,530.66,52.509Z" transform="translate(-323.521 -40.875)" fill="#fff" stroke="#1e1e21" stroke-width="0.5"/>
  </g>
  <g id="Group_846" data-name="Group 846" transform="translate(153.135 55.107)">
    <path id="Path_21554" data-name="Path 21554" d="M264.366,104.573a10.052,10.052,0,0,1-5.694,2.082,8.219,8.219,0,0,1-6.062-2.449,8.137,8.137,0,0,1,0-11.756A8.463,8.463,0,0,1,258.672,90a8.234,8.234,0,0,1,5.633,2.082l.061.061v2.265H262.04V93.368a6.475,6.475,0,0,0-3.368-.918,5.407,5.407,0,0,0-4.164,1.714,6.428,6.428,0,0,0,0,8.327,5.319,5.319,0,0,0,4.164,1.714,6.646,6.646,0,0,0,3.306-.857h.061v-1.041h2.327Z" transform="translate(-250.1 -90)" fill="#fff" stroke="#1e1e21" stroke-width="0.5"/>
    <path id="Path_21555" data-name="Path 21555" d="M277.5,108.076a5.974,5.974,0,0,1-1.9-4.47,5.881,5.881,0,0,1,1.9-4.47,6.659,6.659,0,0,1,9.184,0,5.974,5.974,0,0,1,1.9,4.47,5.881,5.881,0,0,1-1.9,4.47,6.659,6.659,0,0,1-9.184,0Zm1.837-7.164a3.561,3.561,0,0,0,0,5.266,3.941,3.941,0,0,0,2.755,1.1,3.738,3.738,0,0,0,2.755-1.1,3.561,3.561,0,0,0,0-5.266,3.941,3.941,0,0,0-2.755-1.1A3.738,3.738,0,0,0,279.335,100.913Z" transform="translate(-259.986 -92.83)" fill="#fff" stroke="#1e1e21" stroke-width="0.5"/>
    <path id="Path_21556" data-name="Path 21556" d="M312.226,107.3v2.143h-4.347V107.3h.918v-5.449a2.367,2.367,0,0,0-1.1-1.9,2.3,2.3,0,0,0-1.9.061,4.92,4.92,0,0,0-1.837,1.163,3.319,3.319,0,0,0-1.041,1.408v4.776h.857V109.5h-4.347v-2.143h.918v-4.715a.777.777,0,0,1,.061-.367V99.95H299v-2.2h3.919v1.347a7.32,7.32,0,0,1,5.143-1.714,3.262,3.262,0,0,1,2.143,1.163,5.821,5.821,0,0,1,1.1,3.245,15.386,15.386,0,0,1,0,2.449v3.123h.918Z" transform="translate(-269.059 -92.847)" fill="#fff" stroke="#1e1e21" stroke-width="0.5"/>
    <path id="Path_21557" data-name="Path 21557" d="M331.054,106.233a3.427,3.427,0,0,1-.8,2.572,4.129,4.129,0,0,1-3.245,1.163,15.354,15.354,0,0,1-3.735-.857l-.122-.061v-2.51h2.082v.857a4.322,4.322,0,0,0,1.714.367,1.7,1.7,0,0,0,1.347-.429,1.033,1.033,0,0,0,.245-.857,1.609,1.609,0,0,0-.429-.918,4.043,4.043,0,0,0-1.469-.8c-2.2-.8-3.368-1.959-3.551-3.613a3.288,3.288,0,0,1,.735-2.388,3.834,3.834,0,0,1,3-1.163,6.054,6.054,0,0,1,1.837.245,1.246,1.246,0,0,0,.306.061c.918.245,1.47.429,1.653.49l.122.061v2.51h-2.082v-.857a3.646,3.646,0,0,0-1.653-.367,1.363,1.363,0,0,0-1.163.429.976.976,0,0,0-.245.735,1.169,1.169,0,0,0,.429.857,4.7,4.7,0,0,0,1.592.8,6.519,6.519,0,0,1,2.51,1.531A3.279,3.279,0,0,1,331.054,106.233Z" transform="translate(-278.397 -92.947)" fill="#fff" stroke="#1e1e21" stroke-width="0.5"/>
    <path id="Path_21558" data-name="Path 21558" d="M342.519,103.513c0,.429.122.735.429.857a4.754,4.754,0,0,0,1.163.184v2.388a4.469,4.469,0,0,1-2.939-.98,3.283,3.283,0,0,1-1.225-2.633V96.9H338.6V94.635h1.347V90.9h2.572v3.735h1.592V96.9h-1.592Z" transform="translate(-284.412 -90.349)" fill="#fff" stroke="#1e1e21" stroke-width="0.5"/>
    <path id="Path_21559" data-name="Path 21559" d="M353.519,99.521a5.585,5.585,0,0,1,1.469-1.469,3.544,3.544,0,0,1,1.837-.551,2.514,2.514,0,0,1,1.714.674,4.707,4.707,0,0,1,1.286,2.265c-.8.245-1.592.551-2.449.857a1.786,1.786,0,0,0-1.041-1.286,1.341,1.341,0,0,0-1.225.245,3.626,3.626,0,0,0-1.041,1.1,2.933,2.933,0,0,0-.551,1.286c0,.122,0,.184-.061.245v4.531l.918-.061V109.5H350.09v-2.143h.857V100.01H349.6v-2.2h3.857v1.714Z" transform="translate(-288.677 -92.908)" fill="#fff" stroke="#1e1e21" stroke-width="0.5"/>
    <path id="Path_21560" data-name="Path 21560" d="M368,100.2V98.061h4.347V100.2h-.918v5.449a2.269,2.269,0,0,0,1.163,1.9,2.294,2.294,0,0,0,1.9-.061,4.92,4.92,0,0,0,1.837-1.163,2.688,2.688,0,0,0,.98-1.408v-4.776h-.857V98H380.8v2.143h-.918v4.715a.776.776,0,0,1-.061.367v2.327h1.408v2.2h-3.919v-1.347a7.319,7.319,0,0,1-5.143,1.714,3.262,3.262,0,0,1-2.143-1.163,6.329,6.329,0,0,1-1.163-3.245,15.379,15.379,0,0,1,0-2.449v-3.123H368Z" transform="translate(-295.81 -93.102)" fill="#fff" stroke="#1e1e21" stroke-width="0.5"/>
    <path id="Path_21561" data-name="Path 21561" d="M404.056,97.667v3.8h-2.2l-.184-.184c-.122-.122-.245-.184-.306-.306a5.752,5.752,0,0,0-1.1-.735,4.109,4.109,0,0,0-1.714-.367,3.9,3.9,0,0,0-2.694,1.041,3.551,3.551,0,0,0,0,5.143,3.644,3.644,0,0,0,2.694,1.041,3.848,3.848,0,0,0,2.266-.735h3.306a6.345,6.345,0,0,1-2.265,2.327,6,6,0,0,1-3.245.857,6.346,6.346,0,0,1-4.47-1.776,6.063,6.063,0,0,1,0-8.695,6,6,0,0,1,4.47-1.776,6.475,6.475,0,0,1,3.368.918v-.674h2.082Z" transform="translate(-305.232 -92.83)" fill="#fff" stroke="#1e1e21" stroke-width="0.5"/>
    <path id="Path_21562" data-name="Path 21562" d="M417.419,103.513c0,.429.122.735.429.857a4.754,4.754,0,0,0,1.163.184v2.388a4.468,4.468,0,0,1-2.939-.98,3.283,3.283,0,0,1-1.225-2.633V96.9H413.5V94.635h1.347V90.9h2.572v3.735h1.592V96.9h-1.592Z" transform="translate(-313.451 -90.349)" fill="#fff" stroke="#1e1e21" stroke-width="0.5"/>
    <path id="Path_21563" data-name="Path 21563" d="M428.519,95.464v9.429h1.408v2.2H424.6v-2.2h1.408V97.729H424.6v-2.2h3.919Zm-1.408-.918a1.308,1.308,0,0,1-1.041-.49,1.476,1.476,0,0,1-.429-1.1,1.718,1.718,0,0,1,.429-1.163,1.4,1.4,0,0,1,1.041-.49,1.308,1.308,0,0,1,1.041.49,1.524,1.524,0,0,1,.429,1.163,1.476,1.476,0,0,1-.429,1.1A1.509,1.509,0,0,1,427.11,94.545Z" transform="translate(-317.755 -90.504)" fill="#fff" stroke="#1e1e21" stroke-width="0.5"/>
    <path id="Path_21564" data-name="Path 21564" d="M436.9,108.076a5.974,5.974,0,0,1-1.9-4.47,5.881,5.881,0,0,1,1.9-4.47,6.659,6.659,0,0,1,9.184,0,5.974,5.974,0,0,1,1.9,4.47,5.881,5.881,0,0,1-1.9,4.47,6.659,6.659,0,0,1-9.184,0Zm1.837-7.164a3.561,3.561,0,0,0,0,5.266,3.837,3.837,0,0,0,2.755,1.1,3.738,3.738,0,0,0,2.755-1.1,3.561,3.561,0,0,0,0-5.266,3.941,3.941,0,0,0-2.755-1.1A3.837,3.837,0,0,0,438.735,100.913Z" transform="translate(-321.787 -92.83)" fill="#fff" stroke="#1e1e21" stroke-width="0.5"/>
    <path id="Path_21565" data-name="Path 21565" d="M471.625,107.3v2.143h-4.347V107.3h.918v-5.449a2.366,2.366,0,0,0-1.1-1.9,2.3,2.3,0,0,0-1.9.061,4.92,4.92,0,0,0-1.837,1.163,3.319,3.319,0,0,0-1.041,1.408v4.776h.857V109.5h-4.347v-2.143h.918v-4.715a.776.776,0,0,1,.061-.367V99.95H458.4v-2.2h3.919v1.347a7.32,7.32,0,0,1,5.143-1.714,3.262,3.262,0,0,1,2.143,1.163,5.821,5.821,0,0,1,1.1,3.245,15.386,15.386,0,0,1,0,2.449v3.123h.918Z" transform="translate(-330.859 -92.847)" fill="#fff" stroke="#1e1e21" stroke-width="0.5"/>
  </g>
  <g id="Group_847" data-name="Group 847" transform="translate(298.616 63.005)">
    <path id="Path_21566" data-name="Path 21566" d="M490.149,102.9v1.225h-.49v6.245h2.51v-.98h1.225v2.2H487.7V110.37h.49v-6.245h-.49V102.9Z" transform="translate(-487.7 -102.9)" fill="#fff"/>
    <path id="Path_21567" data-name="Path 21567" d="M499.443,109.935a.5.5,0,0,0,.245.49c.061,0,.245.061.612.122v1.286a2.289,2.289,0,0,1-1.592-.551,1.742,1.742,0,0,1-.673-1.408v-3.429H497.3v-1.225h.735V103.2h1.347v2.021h.857v1.225h-.857v3.49Z" transform="translate(-491.422 -103.016)" fill="#fff"/>
    <path id="Path_21568" data-name="Path 21568" d="M508.733,105.933V103.3h1.9v1.225h-.49v6.123h.49v1.225h-1.9v-.551a3.37,3.37,0,0,1-2.143.735,3.451,3.451,0,0,1-3.49-3.368,3.2,3.2,0,0,1,1.041-2.388,3.372,3.372,0,0,1,2.449-.98A2.777,2.777,0,0,1,508.733,105.933Zm-.674,4.1a1.926,1.926,0,0,0,0-2.817,2.26,2.26,0,0,0-1.469-.612,1.815,1.815,0,0,0-1.47.612,1.926,1.926,0,0,0,0,2.817,2.26,2.26,0,0,0,1.47.612A1.99,1.99,0,0,0,508.06,110.035Z" transform="translate(-493.671 -103.055)" fill="#fff"/>
    <path id="Path_21569" data-name="Path 21569" d="M517.292,115.992a.836.836,0,0,1-.673.245.921.921,0,0,1-.674-.245.836.836,0,0,1-.245-.674.92.92,0,0,1,.245-.674.836.836,0,0,1,.674-.245.921.921,0,0,1,.673.245,1.048,1.048,0,0,1,0,1.347Z" transform="translate(-498.556 -107.359)" fill="#fff"/>
  </g>
</svg>
