<svg id="Group_845" data-name="Group 845" xmlns="http://www.w3.org/2000/svg" width="22.199" height="22.199" viewBox="0 0 22.199 22.199">
  <g id="Group_683" data-name="Group 683">
    <g id="Group_450" data-name="Group 450" transform="translate(0 0)">
      <path id="Path_21478" data-name="Path 21478" d="M1167.1,0a11.1,11.1,0,1,0,11.1,11.1A11.1,11.1,0,0,0,1167.1,0Zm0,20.465a9.365,9.365,0,1,1,9.365-9.365A9.365,9.365,0,0,1,1167.1,20.465Z" transform="translate(-1156)" fill="#fff"/>
    </g>
  </g>
  <g id="Group_682" data-name="Group 682" transform="translate(5.592 4.358)">
    <g id="Group_325" data-name="Group 325">
      <path id="Path_21418" data-name="Path 21418" d="M10.989,38.557a1.4,1.4,0,0,0-1.213-1.1A36.461,36.461,0,0,0,5.582,37.3a36.461,36.461,0,0,0-4.194.161,1.43,1.43,0,0,0-1.213,1.1A13.273,13.273,0,0,0,0,41.2a12.271,12.271,0,0,0,.19,2.645,1.4,1.4,0,0,0,1.213,1.1A36.458,36.458,0,0,0,5.6,45.1a36.458,36.458,0,0,0,4.194-.161A1.43,1.43,0,0,0,11,43.847a12.271,12.271,0,0,0,.19-2.645A12.276,12.276,0,0,0,10.989,38.557Zm-7.8.658h-.8v4.3H1.637v-4.3h-.8v-.7H3.186Zm2.046,4.3H4.559V43.1a1.072,1.072,0,0,1-.775.453.421.421,0,0,1-.438-.278,1.713,1.713,0,0,1-.058-.555V39.784H3.96v3.01c.015.1.073.161.161.161.132,0,.278-.1.424-.322v-2.85h.672l.015,3.726ZM7.8,42.4a2.835,2.835,0,0,1-.073.745.542.542,0,0,1-.541.424.948.948,0,0,1-.7-.409v.365H5.816V38.513h.672V40.15a.946.946,0,0,1,.7-.409.542.542,0,0,1,.541.424,2.835,2.835,0,0,1,.073.745Zm2.543-.628H8.987v.658c0,.351.117.511.351.511.161,0,.263-.088.307-.278,0-.044.015-.19.015-.453h.687v.1c0,.219-.015.365-.015.438a1,1,0,0,1-.161.409.931.931,0,0,1-.818.409.98.98,0,0,1-.818-.38,1.434,1.434,0,0,1-.219-.877v-1.3a1.441,1.441,0,0,1,.2-.877,1.04,1.04,0,0,1,1.608,0,1.441,1.441,0,0,1,.2.877l.015.76Z" transform="translate(0 -31.849)" fill="#fff"/>
      <path id="Path_21419" data-name="Path 21419" d="M61.936,58.2c-.219,0-.336.175-.336.511v.351h.672v-.351C62.272,58.361,62.155,58.2,61.936,58.2Z" transform="translate(-52.598 -49.695)" fill="#fff"/>
      <path id="Path_21420" data-name="Path 21420" d="M44.736,58.2a.515.515,0,0,0-.336.161v2.28a.454.454,0,0,0,.336.161c.19,0,.292-.161.292-.5V58.7C45.043,58.361,44.941,58.2,44.736,58.2Z" transform="translate(-37.912 -49.695)" fill="#fff"/>
      <path id="Path_21421" data-name="Path 21421" d="M46.226,12.629A1.049,1.049,0,0,0,47,12.161v.409h.687V8.8H47v2.879c-.146.219-.292.321-.438.321-.088,0-.146-.058-.161-.161a.917.917,0,0,1-.015-.263V8.8H45.7v2.981a2.173,2.173,0,0,0,.058.555A.475.475,0,0,0,46.226,12.629Z" transform="translate(-39.022 -7.514)" fill="#fff"/>
      <path id="Path_21422" data-name="Path 21422" d="M11.165,3.01V5.056h.76V3.01L12.83,0h-.76l-.511,1.987L11,0h-.8l.482,1.4A11.228,11.228,0,0,1,11.165,3.01Z" transform="translate(-8.709)" fill="#fff"/>
      <path id="Path_21423" data-name="Path 21423" d="M29.308,12.458a.971.971,0,0,0,.8-.38,1.453,1.453,0,0,0,.219-.891V9.871a1.453,1.453,0,0,0-.219-.891.916.916,0,0,0-.8-.38.944.944,0,0,0-.789.38,1.453,1.453,0,0,0-.219.891v1.315a1.483,1.483,0,0,0,.219.891A.907.907,0,0,0,29.308,12.458Zm-.336-2.733c0-.351.1-.526.321-.526s.322.175.322.526v1.593c0,.351-.1.526-.322.526s-.321-.175-.321-.526Z" transform="translate(-24.164 -7.343)" fill="#fff"/>
    </g>
  </g>
</svg>
