<svg id="Group_691" data-name="Group 691" xmlns="http://www.w3.org/2000/svg" width="39.454" height="39.454" viewBox="0 0 39.454 39.454">
  <g id="Group_683" data-name="Group 683" transform="translate(0 0)">
    <g id="Group_450" data-name="Group 450">
      <path id="Path_21478" data-name="Path 21478" d="M1175.727,0a19.727,19.727,0,1,0,19.727,19.727A19.725,19.725,0,0,0,1175.727,0Zm0,36.371a16.645,16.645,0,1,1,16.645-16.645A16.644,16.644,0,0,1,1175.727,36.371Z" transform="translate(-1156)" fill="#1f1f1f"/>
    </g>
  </g>
  <g id="Group_682" data-name="Group 682" transform="translate(9.938 7.745)">
    <g id="Group_325" data-name="Group 325">
      <path id="Path_21418" data-name="Path 21418" d="M19.531,39.534a2.481,2.481,0,0,0-2.156-1.948A64.8,64.8,0,0,0,9.921,37.3a64.8,64.8,0,0,0-7.454.286A2.541,2.541,0,0,0,.312,39.534,23.59,23.59,0,0,0,0,44.235a21.81,21.81,0,0,0,.338,4.7,2.481,2.481,0,0,0,2.156,1.948,64.8,64.8,0,0,0,7.454.286,64.8,64.8,0,0,0,7.454-.286,2.541,2.541,0,0,0,2.156-1.948,21.81,21.81,0,0,0,.338-4.7A21.818,21.818,0,0,0,19.531,39.534ZM5.662,40.7H4.233v7.636H2.909V40.7H1.48V39.456H5.662ZM9.3,48.338H8.1v-.727a1.9,1.9,0,0,1-1.377.805.747.747,0,0,1-.779-.493,3.045,3.045,0,0,1-.1-.987v-5.22H7.039v5.35c.026.182.13.286.286.286.234,0,.493-.182.753-.571V41.715H9.272L9.3,48.338Zm4.571-1.974a5.039,5.039,0,0,1-.13,1.325.964.964,0,0,1-.961.753,1.684,1.684,0,0,1-1.247-.727v.649H10.337V39.456h1.195v2.909a1.681,1.681,0,0,1,1.247-.727.964.964,0,0,1,.961.753,5.039,5.039,0,0,1,.13,1.325Zm4.519-1.117H15.973v1.169c0,.623.208.909.623.909.286,0,.468-.156.545-.493,0-.078.026-.338.026-.805h1.221v.182c0,.39-.026.649-.026.779a1.781,1.781,0,0,1-.286.727,1.655,1.655,0,0,1-1.454.727,1.742,1.742,0,0,1-1.454-.675,2.548,2.548,0,0,1-.39-1.558V43.9a2.56,2.56,0,0,1,.364-1.558,1.849,1.849,0,0,1,2.857,0,2.56,2.56,0,0,1,.364,1.558l.026,1.351Z" transform="translate(0 -27.612)" fill="#1f1f1f"/>
      <path id="Path_21419" data-name="Path 21419" d="M62.2,58.2c-.39,0-.6.312-.6.909v.623h1.195v-.623C62.795,58.486,62.587,58.2,62.2,58.2Z" transform="translate(-45.601 -43.084)" fill="#1f1f1f"/>
      <path id="Path_21420" data-name="Path 21420" d="M45,58.2a.915.915,0,0,0-.6.286v4.052a.807.807,0,0,0,.6.286c.338,0,.519-.286.519-.883V59.083C45.543,58.486,45.361,58.2,45,58.2Z" transform="translate(-32.868 -43.084)" fill="#1f1f1f"/>
      <path id="Path_21421" data-name="Path 21421" d="M46.635,15.6a1.865,1.865,0,0,0,1.377-.831V15.5h1.221V8.8H48.012v5.117c-.26.39-.519.571-.779.571-.156,0-.26-.1-.286-.286a1.629,1.629,0,0,1-.026-.467V8.8H45.7v5.3a3.863,3.863,0,0,0,.1.987A.844.844,0,0,0,46.635,15.6Z" transform="translate(-33.831 -6.514)" fill="#1f1f1f"/>
      <path id="Path_21422" data-name="Path 21422" d="M11.914,5.35V8.986h1.351V5.35L14.875,0H13.524l-.909,3.532L11.628,0H10.2l.857,2.493A19.956,19.956,0,0,1,11.914,5.35Z" transform="translate(-7.551)" fill="#1f1f1f"/>
      <path id="Path_21423" data-name="Path 21423" d="M30.092,15.457a1.726,1.726,0,0,0,1.428-.675,2.583,2.583,0,0,0,.39-1.584V10.86a2.583,2.583,0,0,0-.39-1.584A1.629,1.629,0,0,0,30.092,8.6a1.677,1.677,0,0,0-1.4.675,2.583,2.583,0,0,0-.39,1.584V13.2a2.636,2.636,0,0,0,.39,1.584A1.613,1.613,0,0,0,30.092,15.457Zm-.6-4.857c0-.623.182-.935.571-.935s.571.312.571.935v2.831c0,.623-.182.935-.571.935s-.571-.312-.571-.935Z" transform="translate(-20.95 -6.366)" fill="#1f1f1f"/>
    </g>
  </g>
</svg>
